<svg width="16" height="16" viewBox="0 0 16 16" fill="none" xmlns="http://www.w3.org/2000/svg">
<g clip-path="url(#clip0_1021_1480)">
<path d="M7.97 15.94C12.3717 15.94 15.94 12.3717 15.94 7.97C15.94 3.56829 12.3717 0 7.97 0C3.56829 0 0 3.56829 0 7.97C0 12.3717 3.56829 15.94 7.97 15.94Z" fill="white"/>
<path d="M7.97016 1L7.88135 1.31731V10.5769L7.97016 10.6731L11.9402 8.13462L7.97016 1Z" fill="#343434"/>
<path d="M7.97 1L4 8.125L7.97 10.6635V1Z" fill="#8C8C8C"/>
<path d="M7.97004 11.4808L7.91675 11.5481V14.8461L7.97004 15L11.94 8.9519L7.97004 11.4904V11.4808Z" fill="#3C3C3B"/>
<path d="M7.97 14.9904V11.4808L4 8.94232L7.97 14.9904Z" fill="#8C8C8C"/>
<path d="M7.96997 10.6635L11.94 8.12502L7.96997 6.1731V10.6635Z" fill="#141414"/>
<path d="M4 8.12502L7.97 10.6635V6.1731L4 8.12502Z" fill="#393939"/>
</g>
<defs>
<clipPath id="clip0_1021_1480">
<rect width="15.94" height="15.94" fill="white"/>
</clipPath>
</defs>
</svg>
