<svg width="12" height="13" viewBox="0 0 12 13" fill="none" xmlns="http://www.w3.org/2000/svg">
<g clip-path="url(#clip0_1021_1577)">
<path d="M3.55 0.190059C4.14 0.270059 4.69 0.550059 5.11 0.980059C5.39 1.26006 5.65 1.57006 5.89 1.89006C6.67 2.92006 7 3.20006 7.66 3.42006C8.14 3.56006 8.63 3.64006 9.13 3.64006C9.59 3.60006 10.05 3.70006 10.45 3.92006C10.61 4.03006 10.74 4.17006 10.84 4.33006L10.91 4.43006L10.89 4.31006C10.78 3.74006 10.51 3.20006 10.11 2.77006L10.04 2.69006L10 2.86006C9.9 3.29006 9.7 3.59006 9.51 3.59006C9.42 3.59006 9.33 3.54006 9.29 3.45006C9.25 3.37006 9.26 3.27006 9.31 3.19006C9.44 2.92006 9.47 2.61006 9.4 2.32006C9.4 2.24006 9.37 2.17006 9.34 2.10006C9.16 1.97006 8.97 1.86006 8.76 1.76006C7.96 1.40006 7.06 1.29006 6.2 1.44006L5.99 1.47006L5.85 1.30006C5.43 0.770059 4.85 0.380059 4.2 0.190059C3.95 0.130059 3.7 0.110059 3.45 0.130059C3.37 0.140059 3.38 0.150059 3.55 0.170059V0.190059Z" fill="#7A808A"/>
<path d="M8.64993 1.28001C8.76993 1.34001 8.97993 1.44001 9.09993 1.51001C9.58993 1.79001 9.66993 1.96001 9.66993 2.66001C9.68993 2.83001 9.66993 3.00001 9.61993 3.16001C9.55993 3.30001 9.56993 3.32001 9.63993 3.20001C9.75993 2.95001 9.82993 2.67001 9.81993 2.38001C9.81993 2.15001 9.81993 2.10001 9.85993 2.07001C9.89993 2.04001 9.90993 2.03001 9.95993 2.07001C10.1899 2.22001 10.3999 2.39001 10.5999 2.57001L10.7399 2.70001L10.5999 2.52001C10.5199 2.42001 10.3099 2.19001 10.1399 2.01001C9.74993 1.62001 9.72993 1.57001 9.66993 1.21001C9.62993 0.980015 9.63993 0.740015 9.69993 0.510015C9.71993 0.450015 9.73993 0.390015 9.72993 0.390015C9.69993 0.430015 9.67993 0.480015 9.65993 0.530015C9.56993 0.750015 9.51993 0.980015 9.50993 1.22001C9.50993 1.42001 9.48993 1.48001 9.45993 1.51001C9.42993 1.51001 9.37993 1.51001 9.09993 1.40001C8.87993 1.31001 8.65993 1.24001 8.42993 1.20001C8.49993 1.24001 8.57993 1.27001 8.64993 1.30001V1.28001Z" fill="#7A808A"/>
<path d="M4.84999 3.07C5.04999 3.09 5.10999 3.02 5.01999 2.89C4.88999 2.71 4.77999 2.52 4.69999 2.31C4.67999 2.24 4.61999 2.01 4.57999 1.82C4.43999 1.16 4.29999 0.9 3.97999 0.71C3.81999 0.62 3.64999 0.56 3.46999 0.52L3.38999 0.5L3.36999 0.67C3.34999 1.28 3.51999 1.89 3.86999 2.39C4.09999 2.73 4.44999 2.97 4.84999 3.06V3.07Z" fill="#7A808A"/>
<path d="M11.73 6.24C11.57 5.34 10.9 4.61 10.02 4.37C9.61997 4.25 9.20997 4.16 8.78997 4.11C8.18997 4.1 7.60997 3.92 7.10997 3.6C7.06997 3.56 7.01997 3.53 6.96997 3.5C6.96997 3.5 6.96997 3.61 6.96997 3.75C6.96997 4.69 7.52997 5.24 9.11997 5.88C9.76997 6.09 10.39 6.4 10.95 6.81C11.22 7.04 11.39 7.36 11.42 7.71C11.42 7.77 11.44 7.81 11.44 7.81C11.56 7.63 11.64 7.44 11.7 7.23C11.77 6.9 11.78 6.56 11.75 6.23L11.73 6.24Z" fill="#7A808A"/>
<path d="M6.93009 7.75994C6.70009 7.81994 6.46009 7.86994 6.22009 7.89994C5.81009 7.94994 5.40009 8.05994 5.02009 8.21994C4.86009 8.27994 4.72009 8.36994 4.59009 8.47994C4.59009 8.47994 4.65009 8.47994 4.69009 8.45994C5.13009 8.31994 5.59009 8.23994 6.05009 8.23994C6.29009 8.21994 6.56009 8.19994 6.66009 8.18994C7.11009 8.15994 7.53009 7.96994 7.86009 7.65994C8.01009 7.50994 8.12009 7.31994 8.20009 7.11994C8.25009 6.97994 8.27009 6.82994 8.26009 6.68994C8.28009 6.53994 8.26009 6.37994 8.20009 6.23994C8.15009 6.06994 8.06009 5.90994 7.94009 5.77994L7.87009 5.68994L7.91009 5.80994C7.95009 5.91994 7.97009 6.02994 7.99009 6.14994C8.14009 6.88994 7.67009 7.60994 6.94009 7.76994L6.93009 7.75994Z" fill="#7A808A"/>
<path d="M10.8101 7.51005C10.4501 7.12005 10.0201 6.80005 9.54007 6.57005C9.03007 6.29005 8.83007 6.18005 8.73007 6.11005C8.70007 6.08005 8.66007 6.07005 8.62007 6.05005C8.60007 6.05005 8.59007 6.09005 8.57007 6.13005C8.46007 6.57005 8.51007 7.03005 8.71007 7.43005C8.90007 7.79005 9.12007 8.14005 9.37007 8.47005C9.63007 8.83005 9.85007 9.21005 10.0101 9.62005C10.1601 10.03 10.1301 10.47 9.94007 10.86C9.91007 10.91 9.88007 10.97 9.87007 11.04C9.93007 11.02 9.98007 10.99 10.0401 10.96C10.6301 10.64 11.0501 10.08 11.2001 9.42005C11.2601 9.11005 11.2701 8.78005 11.2401 8.47005C11.1901 8.11005 11.0401 7.78005 10.8201 7.50005L10.8101 7.51005Z" fill="#7A808A"/>
<path d="M8.69008 11.86C8.34008 12.03 7.93008 12.01 7.58008 11.83C7.39008 11.67 7.27008 11.44 7.23008 11.2C7.23008 11.15 7.18008 10.93 7.15008 10.71C7.12008 10.32 6.99008 9.95 6.78008 9.62C6.53008 9.29 6.17008 9.06 5.77008 8.97C5.43008 8.9 5.08008 8.88 4.74008 8.93C4.00008 9.07 3.32008 9.4 2.75008 9.89L2.58008 10.05L2.73008 10.07C3.35008 10.1 3.92008 10.39 4.31008 10.88C4.48008 11.11 4.73008 11.28 5.01008 11.35C5.38008 11.46 5.78008 11.28 5.92008 10.92C5.98008 10.74 5.97008 10.55 5.90008 10.38C5.75008 10.1 5.40008 10 5.12008 10.15C5.09008 10.16 5.07008 10.18 5.04008 10.2C4.91008 10.3 4.89008 10.49 4.99008 10.62C5.03008 10.67 5.08008 10.7 5.14008 10.72C5.14008 10.72 5.13341 10.7133 5.12008 10.7C5.03008 10.67 4.96008 10.58 4.97008 10.48C4.97008 10.23 5.24008 10.1 5.50008 10.22C5.67008 10.27 5.78008 10.44 5.76008 10.61C5.76008 10.88 5.55008 11.1 5.28008 11.1C5.26008 11.1 5.23008 11.1 5.21008 11.1C5.04008 11.07 4.88008 10.99 4.75008 10.86C4.53008 10.61 4.56008 10.23 4.82008 10.01C4.86008 9.97 4.91008 9.94 4.96008 9.92C5.27008 9.79 5.62008 9.82 5.90008 10.01C6.27008 10.26 6.53008 10.64 6.65008 11.07C6.73008 11.25 6.81008 11.43 6.91008 11.6C7.11008 11.96 7.48008 12.19 7.89008 12.2C8.09008 12.2 8.29008 12.16 8.47008 12.06C8.60008 12 8.71008 11.92 8.81008 11.83C8.76008 11.83 8.72008 11.85 8.68008 11.87L8.69008 11.86Z" fill="#7A808A"/>
<path d="M2.12006 3.45999C2.12006 3.55999 2.09006 3.61999 1.96006 3.75999C1.72006 4.06999 1.58006 4.44999 1.57006 4.83999C1.47006 5.52999 1.15006 6.17999 0.660063 6.67999C0.460063 6.88999 0.290063 7.12999 0.160063 7.38999C0.0500629 7.58999 6.29332e-05 7.80999 6.29332e-05 8.02999C-0.0199371 8.29999 0.0100629 8.55999 0.100063 8.81999C0.190063 9.08999 0.320063 9.33999 0.480063 9.56999C0.610063 9.74999 0.720063 9.93999 0.780063 10.15C0.780063 10.21 0.800063 10.21 1.08006 10.15C1.67006 10.05 2.21006 9.77999 2.65006 9.37999C2.82006 9.22999 2.91006 8.99999 2.89006 8.76999C2.90006 8.65999 2.89006 8.53999 2.83006 8.42999C2.70006 8.19999 2.50006 8.00999 2.27006 7.88999C1.93006 7.71999 1.69006 7.39999 1.60006 7.02999C1.57006 6.68999 1.66006 6.34999 1.85006 6.06999C2.06006 5.67999 2.18006 5.24999 2.20006 4.79999C2.22006 4.45999 2.26006 4.32999 2.36006 4.21999C2.48006 4.09999 2.63006 4.02999 2.80006 4.03999C3.13006 4.01999 3.44006 3.88999 3.68006 3.67999C3.85006 3.53999 3.95006 3.31999 3.95006 3.09999V2.91999L3.86006 2.80999C3.63006 2.54999 2.31006 1.08999 1.31006 -0.0100098L1.22006 0.0599902C2.57006 1.74999 3.28006 2.80999 3.40006 2.96999C3.52006 3.12999 3.47006 3.27999 3.27006 3.39999C3.13006 3.46999 2.97006 3.51999 2.81006 3.52999C2.67006 3.52999 2.53006 3.45999 2.42006 3.35999C2.35006 3.28999 2.03006 2.82999 1.33006 1.72999C1.05006 1.28999 0.790063 0.88999 0.600063 0.59999L0.560063 0.63999C0.700063 0.89999 0.930063 1.28999 1.27006 1.90999C1.57006 2.40999 1.84006 2.91999 2.08006 3.44999L2.12006 3.45999ZM0.990063 8.38999C0.940063 8.50999 0.810063 8.55999 0.690063 8.51999C0.670063 8.51999 0.660063 8.49999 0.640063 8.48999C0.570063 8.42999 0.570063 8.34999 0.620063 8.26999C0.670063 8.18999 0.670063 8.13999 0.600063 8.09999C0.560063 8.09999 0.540063 8.05999 0.540063 8.01999C0.540063 7.89999 0.750063 7.85999 0.880063 7.94999C1.03006 8.04999 1.07006 8.23999 0.980063 8.38999H0.990063Z" fill="#7A808A"/>
<path d="M4.24008 5.23004C4.68008 5.23004 5.06008 5.04005 5.10008 4.80005C5.10008 4.55005 4.96008 4.33004 4.74008 4.22004C4.58008 4.15004 4.41008 4.13005 4.24008 4.17004C4.03008 4.25005 3.87008 4.43004 3.81008 4.64004C3.78008 4.78004 3.79008 4.94005 3.85008 5.07005C3.95008 5.19005 4.02008 5.21004 4.25008 5.21004L4.24008 5.23004ZM4.67008 4.31004C4.76008 4.35004 4.81008 4.45004 4.77008 4.54004C4.77008 4.55004 4.76008 4.57004 4.75008 4.58004C4.67008 4.66004 4.56008 4.71004 4.45008 4.71004C4.29008 4.71004 4.12008 4.60004 4.12008 4.49004C4.12008 4.28004 4.45008 4.17004 4.67008 4.31004Z" fill="#7A808A"/>
</g>
<defs>
<clipPath id="clip0_1021_1577">
<rect width="11.74" height="12.19" fill="white"/>
</clipPath>
</defs>
</svg>
